Coordinates
version=1
nRows=17
nColumns=36
inDegrees=yes

Units are S.I. units (second, meters, Newtons, ...)
If the header above contains a line with 'inDegrees', this indicates whether rotational values are in degrees (yes) or radians (no).

endheader
time	pelvis_tilt	pelvis_list	pelvis_rotation	pelvis_tx	pelvis_ty	pelvis_tz	hip_flexion_r	hip_adduction_r	hip_rotation_r	knee_angle_r	knee_angle_r_beta	ankle_angle_r	subtalar_angle_r	mtp_angle_r	hip_flexion_l	hip_adduction_l	hip_rotation_l	knee_angle_l	knee_angle_l_beta	ankle_angle_l	subtalar_angle_l	mtp_angle_l	lumbar_extension	lumbar_bending	lumbar_rotation	arm_flex_r	arm_add_r	arm_rot_r	elbow_flex_r	pro_sup_r	arm_flex_l	arm_add_l	arm_rot_l	elbow_flex_l	pro_sup_l
      3.75000000	      2.26254709	      6.89794370	     -1.74340580	      0.86693707	      0.99996161	      0.12671124	     -0.94753338	     -0.40380125	      0.93270317	      9.63087360	      0.16809045	      8.65390176	      2.92003880	     -7.49999837	     28.35568078	      2.03543403	     -6.39914320	     17.88338017	      0.31212387	      3.83214138	      0.08672079	     -7.49999837	     -5.80140421	     -3.36658457	      0.76661484	     49.95243220	      6.69482463	     63.03702111	    120.33474230	     91.05043406	     37.40308855	      7.15412078	     58.83404117	    124.98313307	     92.88854511
      3.76666670	      2.52732200	      6.70138321	     -1.86912445	      0.86682372	      0.99859414	      0.12677101	     -1.56642539	     -0.17752308	      0.95520477	      8.98492021	      0.15681644	      8.46682840	      3.03238442	     -7.49999842	     27.80760942	      1.92805973	     -6.42029745	     18.06483903	      0.31529092	      4.03826595	      0.78432501	     -7.49999842	     -5.96886831	     -3.30362933	      1.04230213	     50.04023197	      6.55680839	     63.31722628	    120.47512741	     90.36159994	     37.52649060	      7.21594164	     59.10512888	    125.28177592	     92.26872666
      3.78333330	      2.39415403	      6.56295150	     -1.81566600	      0.86660169	      0.99971596	      0.12650408	     -1.62485390	      0.00635427	      0.97036421	      8.56658268	      0.14951507	      8.17054124	      3.04177861	     -7.49999850	     27.79824856	      1.91081638	     -6.30789358	     18.24098835	      0.31836531	      4.18460815	      1.14151659	     -7.49999850	     -5.63356758	     -3.26417545	      0.98903096	     49.38982531	      6.53460777	     63.57152329	    120.24248315	     89.14707066	     37.25286922	      7.05856561	     58.84814436	    124.65099623	     91.10150154
      3.80000000	      2.56466698	      6.42533634	     -1.70659339	      0.86631817	      0.99537318	      0.12633459	     -1.97777465	      0.15451489	      0.79780429	      8.28906370	      0.14467145	      8.22459862	      3.45393572	     -7.49999896	     27.60616744	      1.87980892	     -6.06249500	     18.52095945	      0.32325172	      4.43910013	      1.38010983	     -7.49999896	     -5.73294487	     -3.23419666	      0.78910805	     49.71905918	      6.81146601	     63.50383602	    120.22191603	     91.17510401	     37.88050052	      7.14260780	     58.55577481	    123.64927731	     93.54245783
      3.81666670	      2.73775691	      6.20215728	     -1.65113233	      0.86589125	      0.99808074	      0.12626453	     -2.31333626	      0.39767482	      0.80301707	      8.07288131	      0.14089836	      8.23337132	      3.53680866	     -7.49999910	     27.20646431	      1.73763395	     -6.06151232	     18.49604153	      0.32281682	      4.27110996	      1.65266016	     -7.49999910	     -5.83076274	     -3.04518807	      0.65934424	     49.92993779	      6.73272536	     64.16382254	    120.14643830	     89.07366406	     38.36723658	      7.23822735	     58.93118021	    123.47296654	     91.39912455
      3.83333330	      2.79097524	      6.17989954	     -1.76835251	      0.86556184	      0.99271683	      0.12612614	     -2.38684665	      0.42406285	      0.85945661	      7.99032908	      0.13945755	      7.88397514	      3.40697904	     -7.49999924	     27.24518891	      1.72663612	     -6.18443288	     18.69657476	      0.32631679	      4.82334290	      2.03476300	     -7.49999924	     -5.92752889	     -3.12683550	      0.40559111	     50.22608976	      6.82456028	     64.89739805	    120.38838680	     87.54180285	     39.10291056	      7.24335602	     59.15756148	    122.63424235	     89.57728221
      3.85000000	      2.67403743	      6.10568127	     -1.56758315	      0.86518974	      0.98750833	      0.12565256	     -2.26153683	      0.49689261	      0.32404706	      7.97338088	      0.13916175	      7.98397395	      3.94103199	     -7.49999934	     27.46029293	      1.75669585	     -5.85123869	     18.95600596	      0.33084472	      5.27412782	      1.87067376	     -7.49999934	     -5.65071814	     -3.08082832	      0.12637194	     50.53686051	      7.16402611	     64.50238832	    120.24370912	     87.29261440	     39.77396222	      7.68139771	     58.87842988	    122.47702601	     89.20500992
      3.86666670	      2.63202760	      6.14231681	     -1.51680552	      0.86519154	      0.99502408	      0.12570310	     -2.32641907	      0.43742381	      0.31225615	      7.81856068	      0.13645963	      7.78749173	      4.01347232	     -7.49999934	     27.61685397	      1.87820525	     -5.75466552	     19.12504654	      0.33379503	      5.79845183	      1.77828146	     -7.49999934	     -5.61719583	     -3.14294531	     -0.02822242	     50.31995460	      7.15658702	     64.92070809	    120.40209317	     87.47340654	     39.64057749	      7.53597343	     59.03298026	    122.21616894	     89.53302506
      3.88333330	      2.65136175	      6.21192704	     -1.43165829	      0.86925790	      0.99061014	      0.12807951	     -2.49309338	      0.38662815	      0.22348693	      7.70825641	      0.13453445	      7.89887735	      4.21375654	     -7.49999935	     27.61012783	      1.94265322	     -5.77637130	     19.42548356	      0.33903865	      6.45305462	      1.96064880	     -7.49999935	     -5.41656208	     -3.36499301	     -0.08264770	     50.45096811	      7.31699018	     64.40778614	    120.19368311	     87.06293672	     39.87384099	      7.52890220	     59.34938068	    122.08780936	     89.12910193
      3.90000000	      2.50856569	      6.20470137	     -1.12081057	      0.86487574	      0.99283046	      0.12544602	     -2.42237945	      0.37742094	     -0.19371323	      7.62235180	      0.13303514	      8.00879479	      4.65205289	     -7.49999937	     27.88637051	      2.04503239	     -5.59837690	     19.84432505	      0.34634881	      6.46382643	      1.76011617	     -7.49999937	     -5.29877979	     -3.34741267	     -0.31496822	     50.91387158	      7.08038694	     64.12433006	    120.11601914	     87.52363546	     40.10206046	      7.49556697	     59.35138208	    121.60874179	     89.68760559
      3.91666670	      2.51179323	      6.20955908	     -1.06468237	      0.86919524	      0.99814111	      0.12798421	     -2.65361279	      0.37734850	     -0.10801778	      7.35336261	      0.12834039	      8.03895776	      4.77511827	     -7.49999937	     27.70943551	      2.04730631	     -5.71573938	     19.88882130	      0.34712542	      6.11253973	      1.67071021	     -7.49999937	     -5.03778212	     -3.35572941	      0.10737945	     50.56576643	      6.67669171	     63.85676544	    120.13204363	     87.67653776	     39.33293457	      7.05579284	     59.82362895	    121.93719518	     89.92733728
      3.93333330	      2.50675026	      6.06745699	     -0.92108716	      0.86937243	      0.99401550	      0.12791306	     -2.74678148	      0.56210997	     -0.14620069	      7.30850338	      0.12755745	      8.19342328	      4.97618336	     -7.49999943	     27.65837953	      1.87115156	     -5.76327823	     19.99725727	      0.34901798	      5.51120022	      1.49662098	     -7.49999943	     -4.92568387	     -3.32457002	      0.11042572	     50.90659340	      6.52025546	     63.61236304	    120.60893529	     87.29591581	     39.97365477	      7.39966221	     60.36609195	    121.98918834	     89.54279492
      3.95000000	      2.42011463	      5.96951051	     -0.80633857	      0.86930275	      0.99661752	      0.12795830	     -2.78063999	      0.69067786	     -0.09689533	      7.15020788	      0.12479467	      8.02954219	      4.99274923	     -7.49999947	     27.78300736	      1.78530412	     -5.72258434	     20.08721925	      0.35058811	      5.16720219	      1.42477848	     -7.49999947	     -4.79100651	     -3.20943275	      0.13285709	     51.01423761	      6.49456697	     63.79723776	    120.99442768	     87.20403651	     39.86164384	      7.34108706	     60.78810788	    122.21461861	     89.43188979
      3.96666670	      2.32031729	      5.92846632	     -0.68163585	      0.86950861	      0.99696861	      0.12793497	     -2.75100796	      0.76735264	     -0.01831440	      7.04516108	      0.12296126	      8.04374462	      5.05127528	     -7.49999949	     27.72797231	      1.76706750	     -5.88466192	     19.99835249	      0.34903710	      4.93040285	      1.60573583	     -7.49999949	     -4.62686790	     -3.25847459	      0.07235031	     50.98557165	      6.33021650	     63.68547940	    120.99028502	     86.23050097	     39.82560182	      7.41004336	     60.96801586	    122.45274796	     88.47706409
      3.98333330	      2.39633687	      5.92506555	     -0.66956198	      0.87363797	      0.99309306	      0.12572565	     -2.93921564	      0.78192424	      0.21486333	      6.94173407	      0.12115612	      8.02329723	      4.82521490	     -7.49999948	     27.57359291	      1.76312801	     -5.97963392	     20.08004261	      0.35046286	      4.88971813	      1.69617194	     -7.49999948	     -4.62031018	     -3.22442705	     -0.02357043	     51.05522644	      6.20847403	     63.68958160	    120.90372019	     85.79912309	     40.16916859	      7.64133680	     61.11923243	    122.23979404	     88.00917105
      4.00000000	      2.22675261	      5.82571213	     -0.44969443	      0.87381769	      0.99290072	      0.12513696	     -2.70812808	      0.86279916	     -0.05346195	      7.16572369	      0.12506547	      8.21122456	      5.15930554	     -7.49999956	     27.72596345	      1.74823231	     -5.79362412	     20.11188430	      0.35101860	      4.60628214	      1.59647565	     -7.49999956	     -4.43170374	     -3.04417116	     -0.54917343	     50.94363450	      6.33693614	     63.37793618	    120.80059892	     90.33902013	     40.08403549	      7.86665161	     60.66325196	    122.22796089	     92.82562040
      4.01666670	      2.25957139	      5.70576959	     -0.36585372	      0.86935278	      0.99747106	      0.12277656	     -2.57793055	      0.94766731	     -0.10701857	      7.42027871	      0.12950829	      8.07167205	      5.10856765	     -7.49999957	     27.70352899	      1.66248937	     -5.88259501	     20.04157422	      0.34979146	      4.15092341	      1.70286570	     -7.49999957	     -4.63538278	     -2.82151955	     -1.11715776	     50.50544287	      6.36044160	     63.87390794	    120.67373424	     90.36235501	     40.02371014	      7.71936053	     60.55649555	    121.53190985	     92.85775460
